<?xml version="1.0" encoding="UTF-8"?>
<svg width="54px" height="53px" viewBox="0 0 54 53" version="1.1" xmlns="http://www.w3.org/2000/svg" xmlns:xlink="http://www.w3.org/1999/xlink">
    <title>card_home_icon03</title>
    <defs>
        <filter x="-4.5%" y="-8.6%" width="109.0%" height="117.1%" filterUnits="objectBoundingBox" id="filter-1">
            <feOffset dx="0" dy="0" in="SourceAlpha" result="shadowOffsetOuter1"></feOffset>
            <feGaussianBlur stdDeviation="3" in="shadowOffsetOuter1" result="shadowBlurOuter1"></feGaussianBlur>
            <feColorMatrix values="0 0 0 0 0   0 0 0 0 0   0 0 0 0 0  0 0 0 0.15 0" type="matrix" in="shadowBlurOuter1" result="shadowMatrixOuter1"></feColorMatrix>
            <feMerge>
                <feMergeNode in="shadowMatrixOuter1"></feMergeNode>
                <feMergeNode in="SourceGraphic"></feMergeNode>
            </feMerge>
        </filter>
    </defs>
    <g id="1稿" stroke="none" stroke-width="1" fill="none" fill-rule="evenodd">
        <g id="首页" transform="translate(-825.000000, -146.000000)">
            <g id="card/首页/cell1备份-2" filter="url(#filter-1)" transform="translate(786.666667, 102.000000)">
                <g id="card/home/icon03" transform="translate(39.085671, 44.000000)">
                    <ellipse id="椭圆形" fill="#E3EDFF" opacity="0.3" cx="26.1576155" cy="26.125" rx="26.1576155" ry="26.125"></ellipse>
                    <g id="数据集市-(1)" transform="translate(16.145762, 16.000000)" fill="#FFFFFF" fill-rule="nonzero">
                        <path d="M9.51068637,14.9990401 C8.50807795,15.0008327 7.5337741,14.6670814 6.74332512,14.0510707 L3.76070241,17.042974 C4.2432896,17.9273604 3.99208555,19.0321827 3.17438543,19.6216589 C2.35668531,20.211135 1.22766169,20.1013124 0.539214076,19.3653298 C-0.149233539,18.6293472 -0.182267281,17.4968764 0.462112438,16.7221127 C1.10649216,15.9473489 2.22719935,15.772066 3.07787304,16.3129976 L6.01944589,13.3430936 C5.36218002,12.5408321 5.00374771,11.5357872 5.005214,10.4991855 C5.005214,9.33922299 5.44474786,8.28125718 6.16662465,7.48428293 L3.79974983,4.6383749 C2.70091813,5.30289002 1.27680511,5.0287677 0.503953722,4.00397913 C-0.268897668,2.97919057 -0.1395692,1.53644932 0.803255996,0.665072073 C1.74608119,-0.206305171 3.19630024,-0.223412225 4.15946877,0.625481562 C5.1226373,1.47437535 5.28604767,2.9136634 4.53764609,3.95639694 L6.95658414,6.7923053 C7.70739807,6.27471429 8.59838719,5.99808811 9.51068637,5.99933092 C10.792243,5.99933092 11.95065,6.53431363 12.7706459,7.39328587 L15.4739294,5.27035448 C14.8351369,4.49491335 14.8711179,3.36660685 15.5580223,2.63333604 C16.2449267,1.90006523 17.3697518,1.78921064 18.1869041,2.37425255 C19.0040565,2.95929445 19.2601447,4.05881673 18.78542,4.94399803 C18.3106952,5.82917933 17.2523654,6.22553307 16.3119472,5.87033509 L13.3473464,8.13926177 C13.771862,8.8252396 14.0161587,9.63321349 14.0161587,10.4991855 C14.0161587,11.3741572 13.7658547,12.1911308 13.3333294,12.8811085 L15.7762966,14.7050496 C16.7002204,13.8084537 18.1546428,13.7586745 19.1378542,14.5899966 C20.1210656,15.4213187 20.3119394,16.8622243 19.5790145,17.920313 C18.8460896,18.9784017 17.4287463,19.3080914 16.3031568,18.6823138 C15.1775673,18.0565362 14.7113601,16.6796763 15.2256278,15.5000239 L12.7626362,13.6130849 C11.9138929,14.4995849 10.738778,15.0004096 9.51068637,14.9990401 Z" id="路径"></path>
                    </g>
                </g>
            </g>
        </g>
    </g>
</svg>