<?xml version="1.0" encoding="UTF-8"?>
<svg width="54px" height="53px" viewBox="0 0 54 53" version="1.1" xmlns="http://www.w3.org/2000/svg" xmlns:xlink="http://www.w3.org/1999/xlink">
    <title>card_home_icon05</title>
    <defs>
        <filter x="-4.5%" y="-8.6%" width="109.0%" height="117.1%" filterUnits="objectBoundingBox" id="filter-1">
            <feOffset dx="0" dy="0" in="SourceAlpha" result="shadowOffsetOuter1"></feOffset>
            <feGaussianBlur stdDeviation="3" in="shadowOffsetOuter1" result="shadowBlurOuter1"></feGaussianBlur>
            <feColorMatrix values="0 0 0 0 0   0 0 0 0 0   0 0 0 0 0  0 0 0 0.15 0" type="matrix" in="shadowBlurOuter1" result="shadowMatrixOuter1"></feColorMatrix>
            <feMerge>
                <feMergeNode in="shadowMatrixOuter1"></feMergeNode>
                <feMergeNode in="SourceGraphic"></feMergeNode>
            </feMerge>
        </filter>
    </defs>
    <g id="1稿" stroke="none" stroke-width="1" fill="none" fill-rule="evenodd">
        <g id="首页" transform="translate(-1392.000000, -146.000000)">
            <g id="card/首页/cell1备份-4" filter="url(#filter-1)" transform="translate(1353.333333, 102.000000)">
                <g id="card/home/icon05" transform="translate(39.085671, 44.000000)">
                    <ellipse id="椭圆形" fill="#E3EDFF" opacity="0.3" cx="26.1576155" cy="26.125" rx="26.1576155" ry="26.125"></ellipse>
                    <g id="数据集市" transform="translate(16.489805, 14.625000)" fill="#FFFFFF" fill-rule="nonzero">
                        <path d="M6.04237879,11.1330815 L6.04237879,14.4836272 L7.25085455,14.4836272 L7.25085455,10.9773825 C8.05414305,10.8997118 8.86076297,10.8614451 9.66780608,10.8626896 C10.4533153,10.8626896 11.2726619,10.919448 12.0847576,11.0196264 L12.0847576,13.2766583 L9.66780608,13.2766583 L12.6889955,16.8975651 L15.7101849,13.2766583 L13.2932334,13.2766583 L13.2932334,11.2006717 C14.3687768,11.3913728 15.3887303,11.6496641 16.253999,11.9417506 C18.2141467,12.7117968 19.3356122,13.637542 19.3356122,14.5608732 C19.3356122,15.4854114 18.3543298,16.4099496 16.253999,17.0255038 C14.4316175,17.7967569 11.9095286,18.104534 9.66780608,18.104534 C7.28590037,18.104534 4.90399463,17.7967569 3.08161317,17.0255038 C0.982490776,16.4099496 0,15.4854114 0,14.5608732 C0,13.637542 1.1214655,12.7117968 3.08161317,11.9417506 C3.96017504,11.5712112 4.96683536,11.306885 6.04237879,11.1330815 L6.04237879,11.1330815 Z M13.2932334,9.65575148 L13.2932334,6.03484468 L12.0847576,6.03484468 L12.0847576,9.65575148 L7.25085455,9.65575148 L7.25085455,7.24181361 L9.66780608,7.24181361 L6.64661667,3.6209068 L3.62542729,7.24181361 L6.04237879,7.24181361 L6.04237879,9.65575148 L2.88584011,9.65575148 L2.88584011,9.62919816 C1.25802327,9.44211796 0,8.21704452 0,6.73247272 C0,5.11996222 1.4864252,3.81160791 3.3196829,3.81160791 C3.37527279,3.81160791 3.43327963,3.81764275 3.48886951,3.82005669 C3.47253055,3.69075098 3.46445769,3.56053685 3.46469999,3.43020572 C3.46469999,1.5352645 5.20611356,0 7.35961738,0 C9.06961058,0 10.5161561,0.969196045 11.041843,2.31738037 C11.7251005,1.7969904 12.562098,1.51805607 13.4213318,1.52440177 C15.4153168,1.52440177 17.0298404,2.94862512 17.0298404,4.70235097 C17.0298404,4.7554576 17.0225896,4.80735727 17.0201726,4.86046391 C18.3313688,5.04150925 19.3380291,6.03846558 19.3356165,7.24422754 C19.3356165,8.44757556 18.3337858,9.44091099 17.0274235,9.62437029 L17.0274235,9.65575148 L13.2932334,9.65575148 Z M16.2975041,21.9764903 C14.5017091,22.5606633 12.0158745,23 9.66780608,23 C7.31973768,23 4.97166926,22.5606633 3.03810806,21.9764903 C1.10454685,21.3923174 0,20.5160579 0,19.4925483 L0,17.2994857 C1.38128779,18.0309089 2.3480684,18.6150819 3.86712244,19.0544185 C5.66291742,19.4925483 7.59647863,19.7846347 9.66780608,19.7846348 C11.7391335,19.7846348 13.6726948,19.4925483 15.4684897,19.0544185 C16.9875438,18.6150819 17.9543244,18.0309089 19.3356122,17.2994857 L19.3356122,19.4925483 C19.3356122,20.5160579 18.2310653,21.3923174 16.2975041,21.9764903 Z" id="形状"></path>
                    </g>
                </g>
            </g>
        </g>
    </g>
</svg>