<?xml version="1.0" encoding="UTF-8"?>
<svg width="54px" height="53px" viewBox="0 0 54 53" version="1.1" xmlns="http://www.w3.org/2000/svg" xmlns:xlink="http://www.w3.org/1999/xlink">
    <title>card_home_icon04</title>
    <defs>
        <filter x="-4.5%" y="-8.6%" width="109.0%" height="117.1%" filterUnits="objectBoundingBox" id="filter-1">
            <feOffset dx="0" dy="0" in="SourceAlpha" result="shadowOffsetOuter1"></feOffset>
            <feGaussianBlur stdDeviation="3" in="shadowOffsetOuter1" result="shadowBlurOuter1"></feGaussianBlur>
            <feColorMatrix values="0 0 0 0 0   0 0 0 0 0   0 0 0 0 0  0 0 0 0.15 0" type="matrix" in="shadowBlurOuter1" result="shadowMatrixOuter1"></feColorMatrix>
            <feMerge>
                <feMergeNode in="shadowMatrixOuter1"></feMergeNode>
                <feMergeNode in="SourceGraphic"></feMergeNode>
            </feMerge>
        </filter>
    </defs>
    <g id="1稿" stroke="none" stroke-width="1" fill="none" fill-rule="evenodd">
        <g id="首页" transform="translate(-1109.000000, -146.000000)">
            <g id="card/首页/cell1备份-3" filter="url(#filter-1)" transform="translate(1070.000000, 102.000000)">
                <g id="card/home/icon04" transform="translate(39.085671, 44.000000)">
                    <ellipse id="椭圆形" fill="#E3EDFF" opacity="0.3" cx="26.1576155" cy="26.125" rx="26.1576155" ry="26.125"></ellipse>
                    <g id="采集备份" transform="translate(15.171423, 15.152500)" fill="#FFFFFF" fill-rule="nonzero">
                        <path d="M21.3498348,6.66632105 C21.2639267,6.66502528 21.1786828,6.6816375 21.0995937,6.71516655 L12.3887635,11.2260809 L12.3838807,11.2260809 C12.0098527,11.4442618 11.7773949,11.8419997 11.7710953,12.2745637 L11.7710953,21.381734 C11.7710953,21.6950597 12.0457501,21.945 12.3936462,21.945 C12.4972755,21.9455886 12.5996371,21.9222209 12.6927148,21.8767154 C12.7024803,21.8718388 12.7122458,21.8669621 12.7171286,21.8620854 L21.286359,17.3206919 L21.3010073,17.3158153 C21.7026137,17.0963654 21.9723857,16.6940406 21.9723857,16.2331958 L21.9723857,7.22965461 C21.9723857,6.91632895 21.6928481,6.66632105 21.3498348,6.66632105 L21.3498348,6.66632105 Z" id="路径"></path>
                        <path d="M11.8003918,0.235299054 C11.8003918,0.235299054 11.2754959,0 10.9861929,0 C10.6968898,0 10.1768766,0.235299054 10.1768766,0.235299054 L1.25730873,4.23660199 C1.25730873,4.23660199 0.864247173,4.39875106 0.864247173,4.70232341 C0.864247173,5.02540242 1.271957,5.26557813 1.27195698,5.26557813 L10.3697454,10.0569007 C10.5552899,10.139804 10.766469,10.1836939 10.9874135,10.1836939 C11.2132408,10.1836939 11.4244199,10.1349273 11.6099645,10.052024 L20.7040908,5.25582479 C20.7040908,5.25582479 21.0704473,5.06075823 21.0704473,4.6925701 C21.0764007,4.38412109 20.7126356,4.23660201 20.7126356,4.23660199 L11.8003918,0.235299054 Z" id="路径"></path>
                        <path d="M9.58850498,11.2285192 L0.872791971,6.7102899 C0.793145796,6.67861556 0.7082771,6.66207645 0.622550926,6.66152324 C0.279537579,6.66152324 0,6.91145229 0,7.22477796 L0,16.2283192 C0,16.6891639 0.269772067,17.0902696 0.671378439,17.3109386 L0.68114395,17.3158153 L9.25037438,21.8572088 C9.34910066,21.9125882 9.46062996,21.9411714 9.57385672,21.9401405 C9.91687007,21.9401405 10.1964077,21.6853064 10.1964077,21.3768574 L10.1964077,12.2757829 C10.1933119,11.8436117 9.96225885,11.445102 9.58850498,11.2273001 L9.58850498,11.2285192 Z" id="路径"></path>
                    </g>
                </g>
            </g>
        </g>
    </g>
</svg>