<?xml version="1.0" encoding="UTF-8"?>
<svg width="54px" height="53px" viewBox="0 0 54 53" version="1.1" xmlns="http://www.w3.org/2000/svg" xmlns:xlink="http://www.w3.org/1999/xlink">
    <title>card_home_icon06</title>
    <defs>
        <filter x="-4.5%" y="-8.6%" width="109.0%" height="117.1%" filterUnits="objectBoundingBox" id="filter-1">
            <feOffset dx="0" dy="0" in="SourceAlpha" result="shadowOffsetOuter1"></feOffset>
            <feGaussianBlur stdDeviation="3" in="shadowOffsetOuter1" result="shadowBlurOuter1"></feGaussianBlur>
            <feColorMatrix values="0 0 0 0 0   0 0 0 0 0   0 0 0 0 0  0 0 0 0.15 0" type="matrix" in="shadowBlurOuter1" result="shadowMatrixOuter1"></feColorMatrix>
            <feMerge>
                <feMergeNode in="shadowMatrixOuter1"></feMergeNode>
                <feMergeNode in="SourceGraphic"></feMergeNode>
            </feMerge>
        </filter>
    </defs>
    <g id="1稿" stroke="none" stroke-width="1" fill="none" fill-rule="evenodd">
        <g id="首页" transform="translate(-1675.000000, -146.000000)">
            <g id="card/首页/cell1备份-5" filter="url(#filter-1)" transform="translate(1636.666667, 102.000000)">
                <g id="card/home/icon06" transform="translate(39.085671, 44.000000)">
                    <ellipse id="椭圆形" fill="#E3EDFF" opacity="0.3" cx="26.1576155" cy="26.125" rx="26.1576155" ry="26.125"></ellipse>
                    <g id="ico_标准字典管理" transform="translate(16.245256, 16.225000)" fill="#FFFFFF" fill-rule="nonzero">
                        <path d="M18.9986891,19.8 L0.826029969,19.8 C0.369826214,19.8 0,19.4306349 0,18.975 L0,0.825000006 C0,0.369365084 0.369826214,0 0.826029969,0 L16.5205992,0 C16.976803,0 17.3466292,0.369365084 17.3466292,0.825000006 L17.3466292,1.64999999 L18.9986891,1.64999999 C19.4548929,1.64999999 19.8247191,2.01936508 19.8247191,2.475 L19.8247191,18.975 C19.8247191,19.4306349 19.4548929,19.8 18.9986891,19.8 Z M2.89110486,14.025 L10.7383895,14.025 C10.9664914,14.025 11.1514045,13.8403175 11.1514045,13.6125 C11.1514045,13.3846825 10.9664914,13.2 10.7383895,13.2 L2.89110486,13.2 C2.66300299,13.2 2.47808989,13.3846825 2.47808989,13.6125 C2.47808989,13.8403175 2.66300299,14.025 2.89110486,14.025 Z M2.89110486,10.725 L7.84728464,10.725 C8.07538652,10.725 8.26029962,10.5403175 8.26029962,10.3125 C8.26029962,10.0846825 8.07538652,9.9 7.84728464,9.9 L2.89110486,9.9 C2.66300299,9.9 2.47808988,10.0846825 2.47808988,10.3125 C2.47808988,10.5403175 2.66300299,10.725 2.89110486,10.725 L2.89110486,10.725 Z M2.89110486,7.425 L12.8034644,7.425 C13.0315663,7.425 13.2164794,7.24031746 13.2164794,7.0125 C13.2164794,6.78468254 13.0315663,6.59999999 12.8034644,6.59999999 L2.89110486,6.59999999 C2.66300299,6.59999999 2.47808988,6.78468254 2.47808988,7.0125 C2.47808988,7.24031746 2.66300299,7.425 2.89110486,7.425 Z M16.1075843,0.825000006 L1.23904494,0.825000006 C1.01094307,0.825000006 0.826029969,1.00968254 0.826029969,1.2375 C0.826029969,1.46531746 1.01094307,1.64999999 1.23904494,1.64999999 L16.1075843,1.64999999 C16.3356861,1.64999999 16.5205992,1.46531746 16.5205992,1.2375 C16.5205992,1.00968254 16.3356861,0.825000006 16.1075843,0.825000006 Z" id="形状"></path>
                    </g>
                </g>
            </g>
        </g>
    </g>
</svg>