<?xml version="1.0" encoding="UTF-8"?>
<svg width="54px" height="53px" viewBox="0 0 54 53" version="1.1" xmlns="http://www.w3.org/2000/svg" xmlns:xlink="http://www.w3.org/1999/xlink">
    <title>card_home_icon01</title>
    <g id="1稿" stroke="none" stroke-width="1" fill="none" fill-rule="evenodd">
        <g id="首页" transform="translate(-259.000000, -146.000000)">
            <g id="card/首页/cell1" transform="translate(220.000000, 102.000000)">
                <g id="card/home/icon01" transform="translate(39.085671, 44.000000)">
                    <ellipse id="椭圆形" fill="#E3EDFF" opacity="0.3" cx="26.1576155" cy="26.125" rx="26.1576155" ry="26.125"></ellipse>
                    <g id="收货备份-2" transform="translate(15.859038, 16.399979)" fill="#FFFFFF" fill-rule="nonzero">
                        <path d="M2.74628735,0 L6.01917531,0 C6.77821381,0 7.50340962,0.313730216 8.02259195,0.866744749 L11.5447055,4.61898142 C12.0638878,5.17199594 12.7890836,5.48573978 13.5481221,5.48572613 L17.8508678,5.48572613 C19.3676005,5.48572613 20.5971552,6.71374775 20.5971552,8.22858918 L20.5971552,16.4571784 C20.5971552,17.1846309 20.307815,17.8822888 19.7927863,18.3966754 C19.2777575,18.9110621 18.5792285,19.2000414 17.8508678,19.2000414 L2.74628735,19.2000414 C2.01792665,19.2000414 1.31939771,18.9110621 0.80436893,18.3966754 C0.289340145,17.8822888 0,17.1846309 0,16.4571784 L0,2.74286308 C0,2.01541057 0.289340145,1.31775261 0.80436893,0.803365999 C1.31939771,0.288979389 2.01792665,0 2.74628735,0 Z M11.2693902,0.685715787 L17.5075819,0.685715787 C18.4555398,0.685715787 19.2240115,1.4532293 19.2240115,2.40000519 L19.2240115,3.42857884 C19.2240115,3.80728919 18.9166228,4.11429461 18.5374397,4.11429461 L13.8982738,4.11429461 C13.35181,4.11435997 12.8277182,3.89753516 12.4413683,3.51155043 L10.7839839,1.8562326 C10.5876876,1.66012184 10.5289761,1.36523501 10.6352189,1.10903929 C10.7414617,0.852843576 10.9917433,0.685774995 11.2693902,0.685715787 L11.2693902,0.685715787 Z M5.49257473,9.60002072 C5.11339157,9.60002072 4.80600288,9.90702613 4.80600288,10.2857365 C4.80600288,10.6644469 5.11339157,10.9714523 5.49257473,10.9714523 L10.9851494,10.9714523 C11.3643326,10.9714523 11.6717213,10.6644469 11.6717213,10.2857365 C11.6717213,9.90702613 11.3643326,9.60002072 10.9851494,9.60002072 L5.49257473,9.60002072 L5.49257473,9.60002072 Z M5.49257473,13.0285996 C5.11339158,13.0285996 4.8060029,13.335605 4.8060029,13.7143153 C4.8060029,14.0930257 5.11339158,14.4000311 5.49257473,14.4000311 L13.7314368,14.4000311 C14.11062,14.4000311 14.4180086,14.0930257 14.4180086,13.7143153 C14.4180086,13.335605 14.11062,13.0285996 13.7314368,13.0285996 L5.49257473,13.0285996 Z" id="形状"></path>
                    </g>
                </g>
            </g>
        </g>
    </g>
</svg>